<svg viewBox="-66 0 512 512" xmlns="http://www.w3.org/2000/svg"><path d="m309.5625 447.109375c-.648438 0-1.308594-.058594-1.957031-.191406-.632813-.128907-1.261719-.320313-1.871094-.570313-.601563-.25-1.179687-.558594-1.71875-.917968-.550781-.371094-1.0625-.78125-1.523437-1.242188-.457032-.457031-.878907-.976562-1.25-1.519531-.359376-.550781-.65625-1.128907-.90625-1.730469-.25-.597656-.453126-1.226562-.570313-1.867188-.132813-.640624-.203125-1.300781-.203125-1.949218 0-.660156.070312-1.3125.191406-1.960938.128906-.640625.320313-1.269531.570313-1.871094.25-.597656.558593-1.179687.917969-1.730468.371093-.539063.792968-1.058594 1.25-1.519532.460937-.460937.972656-.878906 1.523437-1.238281.539063-.359375 1.117187-.671875 1.71875-.921875.609375-.25 1.238281-.4375 1.871094-.570312 1.289062-.257813 2.617187-.257813 3.910156 0 .636719.132812 1.269531.320312 1.867187.570312.609376.25 1.191407.5625 1.730469.921875.550781.359375 1.058594.777344 1.519531 1.238281.460938.460938.882813.980469 1.242188 1.519532.359375.550781.667969 1.132812.917969 1.730468.25.601563.449219 1.230469.570312 1.871094.128907.648438.199219 1.300782.199219 1.960938 0 .648437-.070312 1.308594-.199219 1.949218-.128906.640626-.320312 1.269532-.570312 1.867188-.25.601562-.558594 1.183594-.917969 1.730469-.359375.542969-.78125 1.0625-1.242188 1.519531-1.859374 1.863281-4.4375 2.921875-7.070312 2.921875zm0 0"/><path d="m369.566406 0h-339.175781c-16.757813 0-30.390625 13.632812-30.390625 30.394531v404.71875c0 .21875.0078125.433594.0195312.644531-.0117187.449219-.0195312.902344-.0195312 1.355469 0 24.75 20.132812 44.882813 44.882812 44.882813h21.179688v20.003906c0 3.589844 1.921875 6.90625 5.042969 8.683594 3.117187 1.78125 6.949219 1.75 10.042969-.074219l29.820312-17.621094 29.820312 17.621094c1.570313.925781 3.328126 1.390625 5.089844 1.390625 1.710938 0 3.417969-.4375 4.957032-1.316406 3.117187-1.777344 5.042968-5.09375 5.042968-8.683594v-20.003906h213.6875c5.523438 0 10-4.476563 10-10v-461.996094c0-5.523438-4.476562-10-10-10zm-10 392.230469h-281.414062v-372.230469h281.417968v372.230469zm-329.175781-372.230469h27.761719v372.230469h-13.269532c-9.199218 0-17.757812 2.78125-24.882812 7.546875v-369.382813c0-5.734375 4.660156-10.394531 10.390625-10.394531zm105.488281 464.476562-19.820312-11.714843c-1.570313-.925781-3.328125-1.390625-5.089844-1.390625-1.757812 0-3.515625.464844-5.085938 1.390625l-19.820312 11.714843v-37.359374h49.816406zm223.6875-22.480468h-203.6875v-14.882813h112.164063c5.523437 0 10-4.476562 10-10 0-5.519531-4.476563-10-10-10h-191.980469c-5.523438 0-10 4.480469-10 10v24.882813h-21.179688c-13.722656 0-24.882812-11.160156-24.882812-24.882813 0-13.71875 11.160156-24.882812 24.882812-24.882812h314.683594zm0 0"/><path d="m320.027344 57.542969h-67.441406c-5.523438 0-10 4.476562-10 10v28.097656h-57.449219c-5.523438 0-10 4.476563-10 10v28.097656h-57.445313c-5.519531 0-10 4.480469-10 10v93.960938c0 5.519531 4.480469 10 10 10h202.335938c5.523437 0 10-4.480469 10-10v-170.15625c0-5.523438-4.476563-10-10-10zm-192.335938 96.195312h47.445313v73.957031h-47.445313zm67.445313-38.097656h47.449219v112.058594h-47.449219zm114.890625 112.054687h-47.441406v-150.152343h47.441406zm0 0"/><path d="m320.027344 354h-202.335938c-5.519531 0-10-4.476562-10-10v-65c0-5.523438 4.480469-10 10-10h202.335938c5.523437 0 10 4.476562 10 10v65c0 5.523438-4.476563 10-10 10zm-192.335938-20h182.335938v-45h-182.335938zm0 0"/></svg>
