<?xml version="1.0" encoding="iso-8859-1"?>
<!-- Generator: Adobe Illustrator 19.0.0, SVG Export Plug-In . SVG Version: 6.00 Build 0)  -->
<svg version="1.1" id="Layer_1" xmlns="http://www.w3.org/2000/svg" xmlns:xlink="http://www.w3.org/1999/xlink" x="0px" y="0px"
	 viewBox="0 0 512 512" style="enable-background:new 0 0 512 512;" xml:space="preserve">
<g>
	<g>
		<path d="M455.111,0H56.889c-9.241,0-16.732,7.492-16.732,16.732v478.536c0,9.241,7.492,16.732,16.732,16.732h398.222
			c9.241,0,16.732-7.492,16.732-16.732V16.732C471.843,7.492,464.352,0,455.111,0z M438.379,478.536H73.621V33.464h364.758V478.536z
			"/>
	</g>
</g>
<g>
	<g>
		<path d="M269.039,219.499c-3.322-25.564-17.303-48.087-37.919-62.47c6.066-10.856,9.596-23.724,9.596-37.522
			c0-38.624-27.559-70.048-61.432-70.048c-33.873,0-61.432,31.424-61.432,70.048c0,13.798,3.532,26.666,9.596,37.522
			c-20.616,14.383-34.597,36.904-37.92,62.471c-1.96,15.1,9.812,28.489,25.038,28.489h129.437
			C259.248,247.989,270.995,234.554,269.039,219.499z M179.284,82.923c15.16,0,27.968,16.754,27.968,36.584
			c0,19.795-12.783,36.584-27.968,36.584c-15.178,0-27.968-16.78-27.968-36.584C151.315,99.677,164.123,82.923,179.284,82.923z
			 M124.718,214.526c4.228-13.851,13.604-25.593,26.222-32.804c8.338,4.951,18.182,7.835,28.343,7.835
			c9.857,0,19.744-2.728,28.343-7.835c12.618,7.21,21.994,18.953,26.221,32.804H124.718z"/>
	</g>
</g>
<g>
	<g>
		<path d="M347.608,100.759h-55.662c-9.241,0-16.732,7.491-16.732,16.732s7.49,16.732,16.732,16.732h55.662
			c9.241,0,16.732-7.492,16.732-16.732S356.848,100.759,347.608,100.759z"/>
	</g>
</g>
<g>
	<g>
		<path d="M405.95,163.225H291.946c-9.241,0-16.732,7.492-16.732,16.732s7.49,16.732,16.732,16.732H405.95
			c9.241,0,16.732-7.491,16.732-16.732S415.191,163.225,405.95,163.225z"/>
	</g>
</g>
<g>
	<g>
		<path d="M269.036,434.05c-3.32-25.564-17.301-48.086-37.918-62.469c6.066-10.856,9.596-23.724,9.596-37.522
			c0-38.624-27.559-70.048-61.432-70.048s-61.432,31.424-61.432,70.048c0,13.798,3.532,26.666,9.596,37.522
			c-20.617,14.383-34.597,36.904-37.919,62.467c-1.961,15.069,9.779,28.491,25.036,28.491H244
			C259.214,462.54,270.994,449.139,269.036,434.05z M179.284,297.475c15.16,0,27.968,16.754,27.968,36.584
			c0,19.832-12.811,36.584-27.968,36.584c-15.159,0-27.968-16.755-27.968-36.584C151.315,314.229,164.123,297.475,179.284,297.475z
			 M124.719,429.077c4.228-13.85,13.604-25.592,26.221-32.804c8.374,4.972,18.269,7.834,28.343,7.834
			c9.616,0,19.561-2.62,28.343-7.834c12.619,7.211,21.996,18.954,26.222,32.804H124.719z"/>
	</g>
</g>
<g>
	<g>
		<path d="M347.608,315.311h-55.662c-9.241,0-16.732,7.492-16.732,16.732s7.49,16.732,16.732,16.732h55.662
			c9.241,0,16.732-7.491,16.732-16.732S356.848,315.311,347.608,315.311z"/>
	</g>
</g>
<g>
	<g>
		<path d="M405.95,377.777H291.946c-9.241,0-16.732,7.491-16.732,16.732s7.49,16.732,16.732,16.732H405.95
			c9.241,0,16.732-7.492,16.732-16.732S415.191,377.777,405.95,377.777z"/>
	</g>
</g>
<g>
</g>
<g>
</g>
<g>
</g>
<g>
</g>
<g>
</g>
<g>
</g>
<g>
</g>
<g>
</g>
<g>
</g>
<g>
</g>
<g>
</g>
<g>
</g>
<g>
</g>
<g>
</g>
<g>
</g>
</svg>
